<svg xmlns="http://www.w3.org/2000/svg" width="1000" height="1000"><path d="M0 500v500h1000V0H0z" fill="#231f20"/><path d="M357.1 157.1l-77.7 177.4-106.1 243.2L79 793.8l-42.7 99.7c-.8 2.8 63.3 5.1 142.4 5l143.9-.1 89.5-212.6c135.8-3.2 142.1-4.5 139.8-15.2-1.3-6.5-6.3-29.3-11.1-50.7l-8.7-38.8c-56.3 0-72.7-1.5-72.7-3.4s23.9-59.6 53.1-128.4c29.2-68.7 55-124.9 57.3-124.9 2.3.1 21.1 39.6 41.9 87.9l37.7 87.7-143.2 329.4-30 69.2 97-3.3c25.4-52.4 52.6-114 76.8-170.6 24.3-56.7 46-103.1 48.3-103.2 2.3 0 30.7 61.6 63.1 136.9l59 136.9c75.3 2.6 97.1 1.8 97.1 0 0-1.9-17.9-43.7-39.8-92.9l-83.8-189.2c-24.2-54.8-43.9-103.5-43.8-108.1.1-4.7 38.1-95.1 84.5-201l86.5-197.7c1.1-2.8-20.6-5-48.2-5h-50.3L712.5 356l-15.6 35-121.3-271.8c-6.4-11.2-21.8 21.3-137.8 290.5l-148.1 342-17.4 38.9c-71.4 0-91.2-2.3-90.1-5.1l131.9-302.4 148.7-339.5 19-42.2H381.7z" fill="#f8f8f8"/></svg>